<svg width="259" height="66" viewBox="0 0 259 66" fill="none" xmlns="http://www.w3.org/2000/svg">
<path d="M43.1773 46.0247L9.34453 2.06819L9.27409 1.99756H0V63.8946H10.3541L10.4011 19.8674L44.1869 63.8239L44.2574 63.8946H53.5315V1.99756H43.1773V46.0247Z" fill="white"/>
<path d="M76.4702 7.08308C76.5241 6.1732 76.3919 5.26186 76.0818 4.40508C75.7716 3.54829 75.2901 2.76415 74.6667 2.1008C74.0433 1.43744 73.2913 0.908872 72.4568 0.547608C71.6223 0.186343 70.7229 0 69.814 0C68.905 0 68.0056 0.186343 67.1711 0.547608C66.3366 0.908872 65.5846 1.43744 64.9612 2.1008C64.3378 2.76415 63.8563 3.54829 63.5461 4.40508C63.236 5.26186 63.1038 6.1732 63.1577 7.08308C63.1385 7.96026 63.2966 8.83224 63.6225 9.64649C63.9485 10.4607 64.4355 11.2004 65.0542 11.8208C65.6729 12.4412 66.4104 12.9295 67.2224 13.2564C68.0344 13.5832 68.904 13.7417 69.7787 13.7225C70.6559 13.7382 71.5272 13.5777 72.3415 13.2505C73.1558 12.9233 73.8966 12.436 74.5202 11.8173C75.1438 11.1985 75.6375 10.4609 75.9724 9.64785C76.3073 8.83479 76.4766 7.96275 76.4702 7.08308Z" fill="white"/>
<path d="M117.088 20.2911C114.127 20.0888 111.163 20.6539 108.482 21.9321C105.801 23.2103 103.493 25.1586 101.78 27.5897C100.17 25.2469 97.9956 23.3496 95.4591 22.0738C92.9227 20.7979 90.1061 20.1847 87.2704 20.2911C84.8624 20.182 82.4627 20.6456 80.2674 21.644C78.0721 22.6424 76.1435 24.1473 74.6389 26.0358V21.327H65.0596V63.8003H74.8267V40.2563C74.7327 38.8216 74.9417 37.3831 75.4401 36.0349C75.9384 34.6867 76.7149 33.4591 77.7188 32.4325C78.7227 31.4058 79.9313 30.6032 81.2657 30.077C82.6001 29.5509 84.0302 29.313 85.4626 29.3791C91.5201 29.3791 94.9949 33.3109 94.9949 40.1857V63.7296H104.645V40.2563C104.551 38.8216 104.76 37.3831 105.258 36.0349C105.756 34.6867 106.533 33.4591 107.537 32.4325C108.541 31.4058 109.749 30.6032 111.084 30.077C112.418 29.5509 113.848 29.313 115.281 29.3791C121.338 29.3791 124.813 33.3109 124.813 40.1857V63.7296H134.463V37.2427C134.53 34.968 134.128 32.7039 133.28 30.593C132.432 28.4821 131.157 26.5702 129.536 24.9777C127.915 23.3852 125.982 22.1466 123.86 21.3401C121.738 20.5335 119.472 20.1763 117.206 20.2911" fill="white"/>
<path d="M179.189 42.6108C179.189 50.4038 174.071 55.866 166.769 55.866C159.467 55.866 154.325 50.4038 154.325 42.6108C154.325 34.8177 159.444 29.3555 166.769 29.3555C174.095 29.3555 179.189 34.8177 179.189 42.6108ZM167.849 20.2676C165.409 20.173 162.979 20.6345 160.743 21.6173C158.506 22.6001 156.521 24.0786 154.936 25.9417V0.231689H145.263V63.8003H154.865V59.2092C156.445 61.0806 158.428 62.5664 160.666 63.5537C162.903 64.541 165.336 65.0038 167.779 64.9069C179.87 64.9069 188.91 55.3009 188.91 42.5401C188.91 29.7793 179.8 20.1969 167.779 20.1969" fill="white"/>
<path d="M207.833 0.231689H198.184V63.918H207.833V0.231689Z" fill="white"/>
<path d="M227.039 38.8203C228.143 32.4164 231.97 28.9083 237.886 28.9083C243.803 28.9083 247.278 32.5105 248.264 38.8203H227.039ZM238.074 20.2913C225.63 20.2913 216.943 29.4734 216.943 42.6344C216.943 55.7955 225.654 65.0012 238.614 65.0012C244.956 65.2636 251.165 63.1294 256.012 59.021L256.176 58.8798L251.387 52.0285L251.199 52.1933C247.776 54.9214 243.549 56.4364 239.178 56.5018C236.221 56.6902 233.306 55.7323 231.033 53.8263C228.761 51.9202 227.306 49.2116 226.969 46.2602H257.961V46.0248C257.961 44.9417 258.125 43.6704 258.125 42.5874C258.125 29.2615 250.025 20.2913 238.074 20.2913Z" fill="white"/>
</svg>
